<?xml version="1.0" encoding="utf-8"?>
<!-- Generator: Adobe Illustrator 19.0.0, SVG Export Plug-In . SVG Version: 6.00 Build 0)  -->
<svg version="1.1" id="Ebene_1" focusable="false" xmlns="http://www.w3.org/2000/svg" xmlns:xlink="http://www.w3.org/1999/xlink"
	 x="0px" y="0px" viewBox="-495 2245 448 512" style="enable-background:new -495 2245 448 512;" xml:space="preserve">
<style type="text/css">
	.st0{fill:#7A7A7A;}
</style>
<path class="st0" d="M-59,2405c6.6,0,12-5.4,12-12v-40c0-6.6-5.4-12-12-12h-20v-48c0-26.5-21.5-48-48-48h-320c-26.5,0-48,21.5-48,48
	v416c0,26.5,21.5,48,48,48h320c26.5,0,48-21.5,48-48v-48h20c6.6,0,12-5.4,12-12v-40c0-6.6-5.4-12-12-12h-20v-64h20
	c6.6,0,12-5.4,12-12v-40c0-6.6-5.4-12-12-12h-20v-64H-59z M-287,2373c35.3,0,64,28.7,64,64s-28.7,64-64,64s-64-28.7-64-64
	S-322.3,2373-287,2373z M-175,2609.8c0,10.6-10,19.2-22.4,19.2h-179.2c-12.4,0-22.4-8.6-22.4-19.2v-19.2c0-31.8,30.1-57.6,67.2-57.6
	h5c12.3,5.1,25.7,8,39.8,8s27.6-2.9,39.8-8h5c37.1,0,67.2,25.8,67.2,57.6V2609.8z"/>
</svg>
