<?xml version="1.0" encoding="utf-8"?>
<!-- Generator: Adobe Illustrator 19.0.0, SVG Export Plug-In . SVG Version: 6.00 Build 0)  -->
<svg version="1.1" id="Ebene_1" xmlns="http://www.w3.org/2000/svg" xmlns:xlink="http://www.w3.org/1999/xlink" x="0px" y="0px"
	 viewBox="-411 59.6 64 64" style="enable-background:new -411 59.6 64 64;" xml:space="preserve">
<style type="text/css">
	.st0{fill:#FFFFFF;}
</style>
<title>Binocular</title>
<g id="Binocular">
	<path class="st0" d="M-398,101.6c-5,0-9,4-9,9s4,9,9,9s9-4,9-9S-393,101.6-398,101.6z M-398,117.6c-3.9,0-7-3.1-7-7s3.1-7,7-7
		s7,3.1,7,7S-394.1,117.6-398,117.6z"/>
	<path class="st0" d="M-360,97.6h-14c-1.1,0-2.2,0.5-3,1.3c-1.3-0.5-2.7-0.5-4,0c-0.8-0.9-1.9-1.4-3-1.3h-14c-7.2,0-13,5.8-13,13
		s5.8,13,13,13c6.9,0,12.6-5.4,13-12.2l2.1-2.2c2.3,2,5.6,2,7.9,0l2,2.2c0.4,7.2,6.6,12.6,13.7,12.2s12.6-6.6,12.2-13.7
		C-347.4,103-353.1,97.6-360,97.6z M-366.9,99.6c-3.2,2-5.3,5.3-5.9,9l-1-1c1.4-2.5,0.8-5.7-1.4-7.6
		C-374.4,99.4-374.3,99.6-366.9,99.6z M-382.8,100c-2.3,1.9-2.8,5.1-1.4,7.6l-1,1c-0.6-3.7-2.7-7-5.9-9
		C-383.3,99.6-383.6,99.5-382.8,100z M-398,121.6c-6.1,0-11-4.9-11-11s4.9-11,11-11s11,4.9,11,11l0,0
		C-387,116.7-391.9,121.6-398,121.6z M-379,108.6c-2.2,0-4-1.8-4-4s1.8-4,4-4s4,1.8,4,4C-375,106.8-376.8,108.6-379,108.6z
		 M-360,121.6c-6.1,0-11-4.9-11-11s4.9-11,11-11s11,4.9,11,11l0,0C-349,116.7-353.9,121.6-360,121.6z"/>
	<path class="st0" d="M-360,101.6c-5,0-9,4-9,9s4,9,9,9s9-4,9-9S-355,101.6-360,101.6z M-360,117.6c-3.9,0-7-3.1-7-7s3.1-7,7-7
		s7,3.1,7,7S-356.1,117.6-360,117.6z"/>
	<circle class="st0" cx="-379" cy="104.6" r="2"/>
	<path class="st0" d="M-379,87.6c6.1,0,11-4.9,11-11s-4.9-11-11-11s-11,4.9-11,11S-385.1,87.6-379,87.6z M-379,67.6c5,0,9,4,9,9
		s-4,9-9,9s-9-4-9-9S-384,67.6-379,67.6z"/>
	<path class="st0" d="M-378,79.6h-4c-0.6,0-1,0.4-1,1s0.4,1,1,1h2v1c0,0.6,0.4,1,1,1s1-0.4,1-1v-1c1.7,0,3-1.3,3-3s-1.3-3-3-3h-2
		c-0.6,0-1-0.4-1-1s0.4-1,1-1h4c0.6,0,1-0.4,1-1s-0.4-1-1-1h-2v-1c0-0.6-0.4-1-1-1s-1,0.4-1,1v1c-1.7,0-3,1.3-3,3s1.3,3,3,3h2
		c0.6,0,1,0.4,1,1S-377.4,79.6-378,79.6z"/>
	<path class="st0" d="M-391.7,88.6c0.3,0.5,0.9,0.6,1.4,0.4l1.6-0.9c1.4,1.2,3,2.1,4.7,2.7v1.9c0,0.6,0.4,1,1,1h8c0.6,0,1-0.4,1-1
		v-1.9c1.7-0.6,3.3-1.6,4.7-2.8l1.6,0.9c0.5,0.3,1.1,0.1,1.4-0.3l4-6.9c0.3-0.5,0.1-1.1-0.4-1.4l0,0l-1.6-0.9c0.4-1.8,0.4-3.7,0-5.5
		l1.6-0.9c0.5-0.3,0.6-0.9,0.4-1.4l0,0l-4-7c-0.3-0.5-0.9-0.6-1.4-0.4l-1.6,0.9c-1.4-1.2-3-2.1-4.7-2.7v-1.9c0-0.6-0.4-1-1-1h-8
		c-0.6,0-1,0.4-1,1v1.9c-1.7,0.6-3.3,1.6-4.7,2.7l-1.6-0.9c-0.5-0.3-1.1-0.1-1.4,0.3c-4.9,8.5-5.2,7.4-2,9.2c-0.4,1.8-0.4,3.7,0,5.5
		C-396.9,81.1-396.7,79.9-391.7,88.6z M-391.6,79.6c-0.5-2-0.5-4,0-6c0.2-0.9-0.5-1.1-1.8-1.9l3-5.2l1.4,0.8
		c1.4,0.8,1.6-1.7,6.4-3.2c0.9-0.3,0.7-1,0.7-2.6h6v1.6c0,1.6,2.3,0.5,5.9,4c0.7,0.6,1.2,0.1,2.6-0.7l3,5.2c-3,1.7-1.5,0.7-1.5,4.9
		c0,4.2-1.5,3.2,1.5,4.9l-3,5.2l-1.4-0.8c-0.4-0.2-0.9-0.2-1.2,0.1c-3.6,3.4-5.9,2.4-5.9,4v1.5h-6c0-1.5,0.2-2.3-0.7-2.5
		c-4.8-1.4-5-3.9-6.4-3.2l-1.4,0.8l-3-5.2C-392.1,80.7-391.4,80.5-391.6,79.6z"/>
</g>
</svg>
