<?xml version="1.0" encoding="utf-8"?>
<!-- Generator: Adobe Illustrator 19.0.0, SVG Export Plug-In . SVG Version: 6.00 Build 0)  -->
<svg version="1.1" id="Ebene_1" xmlns="http://www.w3.org/2000/svg" xmlns:xlink="http://www.w3.org/1999/xlink" x="0px" y="0px"
	 viewBox="-411 59.6 64 64" style="enable-background:new -411 59.6 64 64;" xml:space="preserve">
<style type="text/css">
	.st0{fill:#FFFFFF;}
</style>
<title>hockey stick growth</title>
<g id="hockey_stick_growth">
	<path class="st0" d="M-348,121.5h-2v-48c0-0.6-0.4-1-1-1h-8c-0.6,0-1,0.4-1,1v48h-6v-33c0-0.6-0.4-1-1-1h-8c-0.6,0-1,0.4-1,1v33h-6
		v-19c0-0.6-0.4-1-1-1h-8c-0.6,0-1,0.4-1,1v19h-6v-23c0-0.6-0.4-1-1-1h-8c-0.6,0-1,0.4-1,1v23h-2c-0.6,0-1,0.4-1,1s0.4,1,1,1h62
		c0.6,0,1-0.4,1-1S-347.4,121.5-348,121.5z M-406,121.5v-22h6v22H-406z M-390,121.5v-18h6v18H-390z M-374,121.5v-32h6v32H-374z
		 M-358,121.5v-47h6v47H-358z"/>
	<path class="st0" d="M-400.5,88.2l10.5,2.6c0.1,1.7,1.5,2.9,3.2,2.8s2.9-1.5,2.8-3.2c0-0.3-0.1-0.7-0.2-1l11.8-10.3
		c1.5,0.8,3.3,0.3,4.1-1.2c0.4-0.8,0.5-1.8,0.1-2.6l10.6-9.9c2.1,2.4,2.1,2.6,2.7,2.6c0.5,0,0.9-0.4,1-0.8c1.1-7,1.2-6.9,0.8-7.3
		s-0.2-0.3-7.2-0.2c-0.6,0-1,0.5-1,1c0,0.2,0.1,0.5,0.2,0.6l2.2,2.6l-10.6,10c-1.5-0.7-3.3-0.1-4,1.3c-0.4,0.8-0.4,1.6-0.1,2.4
		l-11.9,10.3c-1.4-0.8-3.1-0.3-4,1l-10.5-2.7c-0.2-1.6-1.6-2.8-3.3-2.7c-1.6,0.2-2.8,1.6-2.7,3.3s1.6,2.8,3.3,2.7
		C-401.8,89.4-401,88.9-400.5,88.2L-400.5,88.2z M-355.2,61.5l-0.5,3.2l-2.7-3.1L-355.2,61.5z M-370,76.5c0,0.6-0.4,1-1,1
		s-1-0.4-1-1s0.4-1,1-1S-370,75.9-370,76.5z M-387,89.5c0.6,0,1,0.4,1,1s-0.4,1-1,1s-1-0.4-1-1S-387.6,89.5-387,89.5z M-403,85.5
		c0.6,0,1,0.4,1,1s-0.4,1-1,1s-1-0.4-1-1S-403.6,85.5-403,85.5z"/>
</g>
</svg>
