<?xml version="1.0" encoding="utf-8"?>
<!-- Generator: Adobe Illustrator 19.0.0, SVG Export Plug-In . SVG Version: 6.00 Build 0)  -->
<svg version="1.1" id="Ebene_1" xmlns="http://www.w3.org/2000/svg" xmlns:xlink="http://www.w3.org/1999/xlink" x="0px" y="0px"
	 viewBox="-411 59.6 64 64" style="enable-background:new -411 59.6 64 64;" xml:space="preserve">
<style type="text/css">
	.st0{fill:#FFFFFF;}
</style>
<title>Feedback Audients</title>
<g id="Feedback_Audients">
	<path class="st0" d="M-348.2,117.2c-0.8-3.7-3.5-6.6-7-7.9c2.5-2,2.2-4.5,2.2-6.7c0-3.3-2.7-6-6-6s-6,2.7-6,6
		c0,2.2-0.3,4.6,2.2,6.7c-2.2,0.8-4.1,2.3-5.4,4.2c-1.4-2.9-3.8-5.1-6.8-6.2c3.2-2.3,3-5.3,3-7.7c0-3.9-3.1-7-7-7s-7,3.1-7,7
		c0,2.2-0.3,5.4,3,7.7c-3,1.1-5.4,3.3-6.8,6.2c-1.3-2-3.2-3.4-5.4-4.2c2.5-2,2.2-4.5,2.2-6.7c0-3.3-2.7-6-6-6s-6,2.7-6,6
		c0,2.3-0.3,4.6,2.2,6.7c-3.5,1.3-6.2,4.3-7,7.9l-1.2,5.2c-0.1,0.6,0.2,1.1,0.8,1.2c0.6,0.1,1.1-0.2,1.2-0.8l1.2-5.2
		c1.1-4.9,6-7.9,10.9-6.8c2.8,0.7,5.1,2.6,6.2,5.2c-0.1,0.3,0.2-1.1-1.3,6.3c-0.1,0.6,0.2,1.1,0.8,1.2c0.6,0.1,1.1-0.2,1.2-0.8
		l1.2-6.2c1.2-5.4,6.5-8.8,11.9-7.7c3.9,0.8,6.9,3.8,7.7,7.7l1.2,6.2c0.1,0.6,0.6,0.9,1.2,0.8s0.9-0.6,0.8-1.2
		c-1.5-7.6-1.2-6.1-1.3-6.3c3.5-8.1,15.2-6.9,17.1,1.6l1.2,5.2c0.1,0.5,0.7,0.9,1.2,0.7c0.5-0.1,0.8-0.6,0.7-1.2L-348.2,117.2z
		 M-403,104.6v-2c0-2.2,1.8-4,4-4s4,1.8,4,4v2c0,2.2-1.8,4-4,4S-403,106.8-403,104.6z M-384,101.6v-2c0-2.8,2.2-5,5-5s5,2.2,5,5v2
		c0,2.8-2.2,5-5,5S-384,104.4-384,101.6z M-363,104.6v-2c0-2.2,1.8-4,4-4s4,1.8,4,4v2c0,2.2-1.8,4-4,4S-363,106.8-363,104.6z"/>
	<path class="st0" d="M-351,59.6h-56c-2.2,0-4,1.8-4,4v14c0,2.2,1.8,4,4,4h23.4l3.7,6.5c0.3,0.5,0.9,0.6,1.4,0.4
		c0.2-0.1,0.3-0.2,0.4-0.4l3.7-6.5h23.4c2.2,0,4-1.8,4-4v-14C-347,61.4-348.8,59.6-351,59.6z M-349,77.6c0,1.1-0.9,2-2,2h-24
		c-0.8,0-0.6,0.1-4,6c-3.4-5.9-3.2-6-4-6h-24c-1.1,0-2-0.9-2-2v-14c0-1.1,0.9-2,2-2h56c1.1,0,2,0.9,2,2V77.6z"/>
	<path class="st0" d="M-379,65.3c-5-3.4-12.6,5.1-0.5,11.1c0.3,0.1,0.6,0.1,0.9,0C-366.5,70.5-373.9,61.9-379,65.3z M-379,74.5
		c-9.3-5.1-3.2-9.7-0.7-7.1c0.4,0.4,1,0.4,1.4,0l0,0C-375.8,64.8-369.7,69.3-379,74.5z"/>
	<path class="st0" d="M-393.8,68.4l-3.1-0.4l-1.4-2.8c-0.2-0.5-0.8-0.7-1.3-0.5c-0.2,0.1-0.4,0.3-0.5,0.5l-1.4,2.8
		c-2.8,0.4-3.6,0.3-3.9,1.1s0.2,1,2.5,3.2c-0.5,2.9-0.9,3.6-0.2,4.1c0.7,0.5,1,0.1,3.8-1.4c2.9,1.6,2.9,1.6,3.3,1.6c0.6,0,1-0.4,1-1
		c0-0.1,0-0.1,0-0.2l-0.5-3.1l2.3-2.2c0.4-0.4,0.4-1,0-1.4C-393.4,68.6-393.6,68.4-393.8,68.4z M-397.3,73.7c-2.2-1.2-1.6-1.2-3.8,0
		c0.4-2.5,0.6-1.9-1.2-3.6c2.5-0.4,2,0,3.1-2.2c1.1,2.2,0.6,1.9,3.1,2.2C-397.9,71.9-397.7,71.3-397.3,73.7z"/>
	<path class="st0" d="M-356,68.6h-0.7l0.2-0.8c0.3-1.4-0.5-2.8-1.9-3.1c-0.2,0-0.4-0.1-0.6-0.1c-0.8,0-0.8,0.4-2.6,3.9
		c-0.2,0.3-0.3,0.7-0.3,1.1h-3.1c-0.6,0-1,0.4-1,1v5c0,0.6,0.4,1,1,1h7.7c1.3,0,2.4-0.8,2.8-2c0.4-1.3,0.6-2.7,0.4-4
		C-354,69.5-354.9,68.6-356,68.6z M-364,71.6h2v3h-2V71.6z M-357.3,74.6h-2.7c0-5.7-0.4-4.1,1.5-7.7c0.4,0.6-0.9,2.5-0.3,3.3
		c0.4,0.5,0.7,0.4,2.8,0.4C-356,72-355.8,74.6-357.3,74.6z"/>
</g>
</svg>
