<?xml version="1.0" encoding="utf-8"?>
<!-- Generator: Adobe Illustrator 19.0.0, SVG Export Plug-In . SVG Version: 6.00 Build 0)  -->
<svg version="1.1" id="Ebene_1" xmlns="http://www.w3.org/2000/svg" xmlns:xlink="http://www.w3.org/1999/xlink" x="0px" y="0px"
	 viewBox="-411 59.6 64 64" style="enable-background:new -411 59.6 64 64;" xml:space="preserve">
<style type="text/css">
	.st0{fill:#FFFFFF;}
</style>
<title>Startup</title>
<g id="Startup">
	<path class="st0" d="M-379,84.6c2.8,0,5-2.2,5-5s-2.2-5-5-5s-5,2.2-5,5S-381.8,84.6-379,84.6z M-379,76.6c1.7,0,3,1.3,3,3
		s-1.3,3-3,3s-3-1.3-3-3S-380.7,76.6-379,76.6z"/>
	<path class="st0" d="M-350,113.6h-1v-36c0-2.2-1.8-4-4-4h-16c-0.2-5.5-2.9-10.6-7.4-13.8c-0.3-0.2-0.8-0.2-1.2,0
		c-4.5,3.2-7.2,8.3-7.4,13.8h-16c-2.2,0-4,1.8-4,4v36h-1c-1.7,0-3,1.3-3,3v2c0,2.8,2.2,5,5,5h54c2.8,0,5-2.2,5-5v-2
		C-347,114.9-348.3,113.6-350,113.6z M-401,79.6h10.7c-4.6,3.5-4.7,3.3-4.7,4v3c0,0.6,0.4,1,1,1h7.2c0.3,0.9,1.1,1.6,2,1.9l0.8,3.4
		c0.1,0.5,0.5,0.8,1,0.8v7.3c-1.5-0.6-3.3-0.2-4.5,0.9c-2.7-1.9-6.4-1.3-8.4,1.3c-0.6,0.8-0.9,1.7-1.1,2.6c-2,0.4-3.6,1.9-4,3.9
		C-401,109.6-401,111.9-401,79.6z M-387,85.6h-6v-1.5l6-4.5V85.6z M-375.8,91.6h-6.2c-0.3,0-0.1,0.3-0.7-2h7.4L-375.8,91.6z
		 M-396,107.6c0.6,0,1-0.4,1-1c0-2.2,1.8-4,4-4c0.8,0,1.7,0.3,2.3,0.8c-1.4,3.3,1.6,3.2,1.6,1.7c0-1.4,1.1-2.5,2.5-2.5
		s2.5,1.1,2.5,2.5c0,0.6,0.4,1,1,1s1-0.4,1-1c0-1-0.4-2-1-2.8v-8.7h4v8.7c-1.1,1.3-1.6,3.8,0,3.8c0.6,0,1-0.4,1-1
		c0-1.4,1.1-2.5,2.5-2.5s2.5,1.1,2.5,2.5c0,1.5,3,1.6,1.6-1.7c1.8-1.3,4.3-0.9,5.6,0.9c0.5,0.7,0.8,1.5,0.8,2.3c0,0.6,0.4,1,1,1
		c1.3,0,2.4,0.8,2.8,2h-39.6C-398.4,108.4-397.3,107.6-396,107.6z M-357.1,109.6c-0.4-2-2-3.5-4-3.9c-0.5-3.3-3.6-5.5-6.8-5
		c-0.9,0.1-1.8,0.5-2.6,1.1c-1.2-1.1-2.9-1.4-4.5-0.9v-7.3c0.5,0,0.9-0.3,1-0.8l0.8-3.4c0.9-0.3,1.7-1,2-1.9h7.2c0.6,0,1-0.4,1-1v-3
		c0-0.7,0-0.5-4.7-4h10.7C-357,111.9-356.9,109.6-357.1,109.6z M-371,79.6l6,4.5v1.5h-6V79.6z M-376.1,64.8c-1.8,1-4,1-5.8,0
		c0.8-1.1,1.8-2.1,2.9-3C-377.9,62.7-376.9,63.7-376.1,64.8z M-383,66.5c2.5,1.5,5.5,1.5,8,0c2.6,4.6,2,7.4,2,20.1c0,0.6-0.4,1-1,1
		h-10c-0.6,0-1-0.4-1-1C-385,73.8-385.5,71-383,66.5z M-405,77.6c0-1.1,0.9-2,2-2h16c0,2.6,1.7,2-15,2c-0.6,0-1,0.4-1,1v32
		c0,0.6,0.4,1,1,1h46c0.6,0,1-0.4,1-1v-32c0-0.6-0.4-1-1-1c-16.7,0-15,0.7-15-2h16c1.1,0,2,0.9,2,2v36h-52V77.6z M-370.9,115.6
		l-0.7,1h-14.9l-0.7-1H-370.9z M-349,118.6c0,1.7-1.3,3-3,3h-54c-1.7,0-3-1.3-3-3v-2c0-0.6,0.4-1,1-1h18.5l1.7,2.6
		c0.4,0.6-0.4,0.4,16.8,0.4c0.7,0,0.7-0.3,2.5-3h18.5c0.6,0,1,0.4,1,1V118.6z"/>
</g>
</svg>
