<?xml version="1.0" encoding="utf-8"?>
<!-- Generator: Adobe Illustrator 19.0.0, SVG Export Plug-In . SVG Version: 6.00 Build 0)  -->
<svg version="1.1" id="Ebene_1" xmlns="http://www.w3.org/2000/svg" xmlns:xlink="http://www.w3.org/1999/xlink" x="0px" y="0px"
	 viewBox="-411 59.6 64 64" style="enable-background:new -411 59.6 64 64;" xml:space="preserve">
<style type="text/css">
	.st0{fill:#FFFFFF;}
</style>
<title>Unicorn</title>
<g id="Unicorn">
	<path class="st0" d="M-348.9,92.8c-16.1-11-11.9-8.2-17.4-13.9l8.2-17.9c0.2-0.5,0-1.1-0.5-1.3c-0.4-0.2-0.8-0.1-1.1,0.2l-15.9,14
		c-0.8-0.1-1.6-0.2-2.4-0.3v-5c0-0.6-0.4-1-1-1c-2.3,0-4.6,0.4-6.8,1.3l-1.5-1.9c-0.3-0.4-1-0.5-1.4-0.2c-0.1,0.1-0.2,0.1-0.2,0.2
		c-0.9,1.4-1.5,2.9-1.8,4.5c-11.6,8.7-17.5,29.7-20.3,43.8c-0.1,0.5,0.2,1.1,0.7,1.2l4.9,1.4c-0.4,2.5-0.6,4.4-0.6,4.5
		c-0.1,0.5,0.3,1,0.9,1.1h0.1c1.4,0,0.7-1.1,2.1-7.8c1.9-9.1,6.1-25.3,13.4-34.2c0.3,0.9,0.6,1.4,0.6,1.5c0.3,0.5,0.9,0.6,1.4,0.3
		c0.4-0.3,0.6-0.8,0.4-1.2c-1.1-2.4-1.8-4.9-1.9-7.6c0-1.8,0.4-3.5,1.2-5.2l9,11.8c0.4,0.4,1,0.5,1.4,0.1c0.4-0.3,0.5-0.9,0.2-1.3
		l-3.3-4.3c0.5-0.1,1-0.1,1.5-0.1c5.1,0,8.1,1.5,10.8,4.2c6,5.9,0.1,2.3,18.2,14.6c0.7,0.5,1,1.2,1,2c-0.1,0.7-0.3,1.3-0.7,1.8
		l-2.6,7c-0.7,0.7-1.7,0.9-2.5,0.6c-16.7-6.2-13.4-5.7-16.1-4.1c-4.9,3-11.2,2.2-15.3-1.8c-0.4-0.4-1-0.4-1.4,0s-0.4,1,0,1.4
		c4,4,10,5.3,15.4,3.3c-1.4,5.4-0.3,13.1,1.4,18.3c0.2,0.5,0.7,0.8,1.3,0.6c0.5-0.2,0.8-0.7,0.6-1.3c-1.6-4.7-3.1-14.6-0.7-19
		c0.4-0.2,0.5-0.3,0.9-0.6c14.2,5.3,13.7,5.3,14.8,5.3c1.4,0,2.7-0.7,3.5-1.9l2.6-7.1c1.4-1.9,1-4.7-0.9-6.1
		C-348.8,92.8-348.9,92.8-348.9,92.8z M-405,116l-3.9-1.1c2.7-12.9,8-31.7,17.9-40.4c0,1.7,0.3,3.3,0.7,4.9
		C-398,88-402.8,104.7-405,116z M-367.9,77.4c-1.5-1.4-3.4-2.4-5.3-3l11.3-9.9L-367.9,77.4z M-384.5,70.5c1.4-0.5,2.9-0.8,4.5-0.9v4
		c-0.6,0.1-1.2,0.2-1.9,0.3L-384.5,70.5z"/>
</g>
</svg>
