<?xml version="1.0" encoding="utf-8"?>
<!-- Generator: Adobe Illustrator 19.0.0, SVG Export Plug-In . SVG Version: 6.00 Build 0)  -->
<svg version="1.1" id="Ebene_1" xmlns="http://www.w3.org/2000/svg" xmlns:xlink="http://www.w3.org/1999/xlink" x="0px" y="0px"
	 viewBox="0 0 600 600" style="enable-background:new 0 0 600 600;" xml:space="preserve">
<style type="text/css">
	.st0{fill:#FFB000;}
</style>
<g id="XMLID_5_">
	<path id="XMLID_3_" class="st0" d="M490.3,301.4c0.1,5.3-102.7,10.3-229.4,11.2c-126.7,0.9-229.5-2.7-229.6-8
		c-0.1-5.3,102.7-10.3,229.4-11.2C387.4,292.5,490.3,296.1,490.3,301.4L490.3,301.4z"/>
	<path id="XMLID_2_" class="st0" d="M568.2,300.1c-0.4,1.9-6.2,2.9-16.1,2.6c-9.8-0.3-23.7-2.1-39.6-6.1c-13-3.3-27.2-8.2-41.4-14.8
		c-12.2-5.7-23.1-12-32.4-18.4c-9.3-6.4-16.9-12.8-22.8-18.5c-5.9-5.7-10-10.8-12.3-14.6c-2.3-3.8-2.9-6.4-1.7-7.2
		c1.2-0.9,4.1,0,8.4,2.2c4.3,2.2,10,5.6,16.9,9.8c6.9,4.2,15.1,9.1,24.4,14.3c9.3,5.2,19.7,10.6,30.9,15.8
		c13,6.1,25.7,11.2,37.3,15.5c14,5.2,26.3,9.1,34.9,12.2C563.5,295.9,568.5,298.3,568.2,300.1L568.2,300.1z"/>
	<path id="XMLID_1_" class="st0" d="M569.5,299.6c0.4,1.9-4.7,4.3-13.3,7.4c-8.6,3.1-20.9,7-34.9,12.2c-11.5,4.3-24.2,9.4-37.3,15.5
		c-11.2,5.2-21.6,10.6-30.9,15.8c-9.3,5.2-17.5,10.1-24.4,14.3c-6.9,4.2-12.6,7.6-16.9,9.8c-4.3,2.2-7.2,3.1-8.4,2.2
		c-1.2-0.9-0.6-3.4,1.7-7.2s6.4-8.9,12.3-14.6c5.9-5.7,13.5-12.2,22.8-18.5c9.3-6.4,20.2-12.7,32.4-18.4
		c14.1-6.6,28.4-11.5,41.4-14.8c15.8-4.1,29.7-5.8,39.6-6.1C563.3,296.7,569.2,297.7,569.5,299.6L569.5,299.6z"/>
</g>
</svg>
