<?xml version="1.0" encoding="utf-8"?>
<!-- Generator: Adobe Illustrator 19.0.0, SVG Export Plug-In . SVG Version: 6.00 Build 0)  -->
<svg version="1.1" id="Ebene_1" xmlns="http://www.w3.org/2000/svg" xmlns:xlink="http://www.w3.org/1999/xlink" x="0px" y="0px"
	 viewBox="0 0 600 600" style="enable-background:new 0 0 600 600;" xml:space="preserve">
<style type="text/css">
	.st0{fill:#FFB000;}
</style>
<g id="XMLID_5_">
	<path id="XMLID_3_" class="st0" d="M302,110c5.3-0.1,10.3,102.7,11.2,229.4c0.9,126.7-2.7,229.5-8,229.6
		c-5.3,0.1-10.3-102.7-11.2-229.4C293.1,212.9,296.7,110.1,302,110L302,110z"/>
	<path id="XMLID_2_" class="st0" d="M300.7,32.2c1.9,0.4,2.9,6.2,2.6,16.1c-0.3,9.8-2.1,23.7-6.1,39.6c-3.3,13-8.2,27.2-14.8,41.4
		c-5.7,12.2-12,23.1-18.4,32.4c-6.4,9.3-12.8,16.9-18.5,22.8c-5.7,5.9-10.8,10-14.6,12.3c-3.8,2.3-6.4,2.9-7.2,1.7
		c-0.9-1.2,0-4.1,2.2-8.4c2.2-4.3,5.6-10,9.8-16.9c4.2-6.9,9.1-15.1,14.3-24.4c5.2-9.3,10.6-19.7,15.8-30.9
		c6.1-13,11.2-25.7,15.5-37.3c5.2-14,9.1-26.3,12.2-34.9C296.5,36.8,298.9,31.8,300.7,32.2L300.7,32.2z"/>
	<path id="XMLID_1_" class="st0" d="M300.2,30.8c1.9-0.4,4.3,4.7,7.4,13.3c3.1,8.6,7,20.9,12.2,34.9c4.3,11.5,9.4,24.2,15.5,37.3
		c5.2,11.2,10.6,21.6,15.8,30.9c5.2,9.3,10.1,17.5,14.3,24.4c4.2,6.9,7.6,12.6,9.8,16.9c2.2,4.3,3.1,7.2,2.2,8.4
		c-0.9,1.2-3.4,0.6-7.2-1.7s-8.9-6.4-14.6-12.3c-5.7-5.9-12.2-13.5-18.5-22.8c-6.4-9.3-12.7-20.2-18.4-32.4
		c-6.6-14.1-11.5-28.4-14.8-41.4c-4.1-15.8-5.8-29.7-6.1-39.6C297.3,37,298.3,31.2,300.2,30.8L300.2,30.8z"/>
</g>
</svg>
