<?xml version="1.0" encoding="utf-8"?>
<!-- Generator: Adobe Illustrator 19.0.0, SVG Export Plug-In . SVG Version: 6.00 Build 0)  -->
<svg version="1.1" id="Ebene_1" focusable="false" xmlns="http://www.w3.org/2000/svg" xmlns:xlink="http://www.w3.org/1999/xlink"
	 x="0px" y="0px" viewBox="-463 2245 512 512" style="enable-background:new -463 2245 512 512;" xml:space="preserve">
<style type="text/css">
	.st0{fill:#129FB3;}
</style>
<path class="st0" d="M34.9,2387.1l-46.1,46.1c-4.7,4.7-12.3,4.7-17,0l-111-111c-4.7-4.7-4.7-12.3,0-17l46.1-46.1
	c18.7-18.7,49.1-18.7,67.9,0l60.1,60.1C53.7,2337.9,53.7,2368.3,34.9,2387.1z M-178.8,2344.8l-262.6,262.6l-21.2,121.5
	c-2.9,16.4,11.4,30.6,27.8,27.8l121.5-21.3l262.6-262.6c4.7-4.7,4.7-12.3,0-17l-111-111C-166.5,2340.1-174.1,2340.1-178.8,2344.8
	L-178.8,2344.8z M-338.9,2584.9c-5.5-5.5-5.5-14.3,0-19.8l154-154c5.5-5.5,14.3-5.5,19.8,0s5.5,14.3,0,19.8l-154,154
	C-324.6,2590.4-333.4,2590.4-338.9,2584.9L-338.9,2584.9z M-375,2669h48v36.3l-64.5,11.3l-31.1-31.1l11.3-64.5h36.3V2669z"/>
</svg>
