<?xml version="1.0" encoding="utf-8"?>
<!-- Generator: Adobe Illustrator 19.0.0, SVG Export Plug-In . SVG Version: 6.00 Build 0)  -->
<svg version="1.1" id="Ebene_1" xmlns="http://www.w3.org/2000/svg" xmlns:xlink="http://www.w3.org/1999/xlink" x="0px" y="0px"
	 viewBox="-411 59.6 64 64" style="enable-background:new -411 59.6 64 64;" xml:space="preserve">
<style type="text/css">
	.st0{fill:#FFFFFF;}
</style>
<title>Comparison</title>
<g id="Comparison">
	<path class="st0" d="M-401,63.6c-0.6,0-1,0.4-1,1s0.4,1,1,1s1-0.4,1-1S-400.4,63.6-401,63.6z"/>
	<path class="st0" d="M-396,63.6c-0.6,0-1,0.4-1,1s0.4,1,1,1s1-0.4,1-1S-395.4,63.6-396,63.6z"/>
	<path class="st0" d="M-391,63.6c-0.6,0-1,0.4-1,1s0.4,1,1,1s1-0.4,1-1S-390.4,63.6-391,63.6z"/>
	<path class="st0" d="M-348,79.6h-3v-19c0-0.6-0.4-1-1-1h-54c-0.6,0-1,0.4-1,1v19h-3c-0.6,0-1,0.4-1,1v42c0,0.6,0.4,1,1,1h28
		c0.6,0,1-0.4,1-1v-10h4v10c0,0.6,0.4,1,1,1h28c0.6,0,1-0.4,1-1v-42C-347,80-347.4,79.6-348,79.6z M-405,61.6h52v6h-52V61.6z
		 M-383,121.6h-26v-40h26V121.6z M-381,110.6v-30c0-0.6-0.4-1-1-1h-23v-10h52v10h-23c-0.6,0-1,0.4-1,1v30H-381z M-349,121.6h-26v-40
		h26V121.6z"/>
	<path class="st0" d="M-387,84.6h-18c-0.6,0-1,0.4-1,1v16c0,0.6,0.4,1,1,1h18c0.6,0,1-0.4,1-1v-16C-386,85-386.4,84.6-387,84.6z
		 M-388,100.6h-16v-14h16V100.6z"/>
	<path class="st0" d="M-398.1,97.9l0.5-1.3h3.1l0.5,1.3c0.2,0.5,0.8,0.8,1.3,0.6c0.5-0.2,0.8-0.8,0.6-1.3l0,0l-3-8
		c-0.2-0.5-0.8-0.8-1.3-0.6c-0.3,0.1-0.5,0.3-0.6,0.6l-3,8c-0.2,0.5,0.1,1.1,0.6,1.3C-398.8,98.7-398.3,98.5-398.1,97.9z M-396,92.4
		l0.8,2.2h-1.6L-396,92.4z"/>
	<path class="st0" d="M-353,102.6c0.6,0,1-0.4,1-1v-16c0-0.6-0.4-1-1-1h-18c-0.6,0-1,0.4-1,1v16c0,0.6,0.4,1,1,1H-353z M-370,86.6
		h16v14h-16V86.6z"/>
	<path class="st0" d="M-359.4,93.1c0.8-1.4,0.3-3.3-1.1-4.1c-0.4-0.2-0.9-0.4-1.5-0.4h-3c-0.6,0-1,0.4-1,1v8c0,0.6,0.4,1,1,1h4
		c1.7,0,3-1.4,3-3C-358,94.6-358.5,93.6-359.4,93.1z M-364,90.6h2c0.6,0,1,0.4,1,1s-0.4,1-1,1h-2V90.6z M-361,96.6h-3v-2h3
		c0.6,0,1,0.4,1,1S-360.4,96.6-361,96.6z"/>
	<path class="st0" d="M-405,105.6c-0.6,0-1,0.4-1,1s0.4,1,1,1s1-0.4,1-1S-404.4,105.6-405,105.6z"/>
	<path class="st0" d="M-387,105.6h-14c-0.6,0-1,0.4-1,1s0.4,1,1,1h14c0.6,0,1-0.4,1-1S-386.4,105.6-387,105.6z"/>
	<path class="st0" d="M-405,110.6c-0.6,0-1,0.4-1,1s0.4,1,1,1s1-0.4,1-1S-404.4,110.6-405,110.6z"/>
	<path class="st0" d="M-387,110.6h-14c-0.6,0-1,0.4-1,1s0.4,1,1,1h14c0.6,0,1-0.4,1-1S-386.4,110.6-387,110.6z"/>
	<path class="st0" d="M-405,115.6c-0.6,0-1,0.4-1,1s0.4,1,1,1s1-0.4,1-1S-404.4,115.6-405,115.6z"/>
	<path class="st0" d="M-387,115.6h-14c-0.6,0-1,0.4-1,1s0.4,1,1,1h14c0.6,0,1-0.4,1-1S-386.4,115.6-387,115.6z"/>
	<path class="st0" d="M-371,105.6c-0.6,0-1,0.4-1,1s0.4,1,1,1s1-0.4,1-1S-370.4,105.6-371,105.6z"/>
	<path class="st0" d="M-367,105.6c-0.6,0-1,0.4-1,1s0.4,1,1,1h14c0.6,0,1-0.4,1-1s-0.4-1-1-1H-367z"/>
	<path class="st0" d="M-371,110.6c-0.6,0-1,0.4-1,1s0.4,1,1,1s1-0.4,1-1S-370.4,110.6-371,110.6z"/>
	<path class="st0" d="M-353,110.6h-14c-0.6,0-1,0.4-1,1s0.4,1,1,1h14c0.6,0,1-0.4,1-1S-352.4,110.6-353,110.6z"/>
	<path class="st0" d="M-371,115.6c-0.6,0-1,0.4-1,1s0.4,1,1,1s1-0.4,1-1S-370.4,115.6-371,115.6z"/>
	<path class="st0" d="M-353,115.6h-14c-0.6,0-1,0.4-1,1s0.4,1,1,1h14c0.6,0,1-0.4,1-1S-352.4,115.6-353,115.6z"/>
</g>
</svg>
