<?xml version="1.0" encoding="utf-8"?>
<!-- Generator: Adobe Illustrator 19.0.0, SVG Export Plug-In . SVG Version: 6.00 Build 0)  -->
<svg version="1.1" id="Ebene_1" xmlns="http://www.w3.org/2000/svg" xmlns:xlink="http://www.w3.org/1999/xlink" x="0px" y="0px"
	 viewBox="-411 59.6 64 64" style="enable-background:new -411 59.6 64 64;" xml:space="preserve">
<style type="text/css">
	.st0{fill:#FFFFFF;}
</style>
<title>Target Audience</title>
<g id="Target_Audience">
	<path class="st0" d="M-350,88.6h-1.2c-1.5-13.1-11.8-23.4-24.8-24.8v-1.2c0-1.7-1.3-3-3-3s-3,1.3-3,3v1.2
		c-13.1,1.5-23.4,11.8-24.8,24.8h-1.2c-1.7,0-3,1.3-3,3s1.3,3,3,3h1.2c1.5,13.1,11.8,23.4,24.8,24.8v1.2c0,1.7,1.3,3,3,3s3-1.3,3-3
		v-1.2c13.1-1.5,23.4-11.8,24.8-24.8h1.2c1.7,0,3-1.3,3-3S-348.3,88.6-350,88.6z M-353.2,88.6h-2c-1.3-10.9-9.9-19.5-20.8-20.8v-2
		C-364.1,67.2-354.6,76.6-353.2,88.6z M-358,94.6h0.8c-1.3,9.8-9,17.5-18.8,18.8v-0.8c0-1.7-1.3-3-3-3s-3,1.3-3,3v0.8
		c-9.8-1.3-17.5-9-18.8-18.8h0.8c1.7,0,3-1.3,3-3s-1.3-3-3-3h-0.8c1.3-9.8,9-17.5,18.8-18.8v0.8c0,1.7,1.3,3,3,3s3-1.3,3-3v-0.8
		c9.8,1.3,17.5,9,18.8,18.8h-0.8c-1.7,0-3,1.3-3,3S-359.7,94.6-358,94.6z M-380,62.6c0-0.6,0.4-1,1-1s1,0.4,1,1v8c0,0.6-0.4,1-1,1
		s-1-0.4-1-1V62.6z M-382,65.8v2c-10.9,1.3-19.5,9.9-20.8,20.8h-2C-403.4,76.6-393.9,67.2-382,65.8z M-408,90.6h8c0.6,0,1,0.4,1,1
		s-0.4,1-1,1h-8c-0.6,0-1-0.4-1-1S-408.6,90.6-408,90.6z M-404.8,94.6h2c1.3,10.9,9.9,19.5,20.8,20.8v2
		C-393.9,116-403.4,106.5-404.8,94.6z M-378,120.6c0,0.6-0.4,1-1,1s-1-0.4-1-1v-8c0-0.6,0.4-1,1-1s1,0.4,1,1V120.6z M-376,117.4v-2
		c10.9-1.3,19.5-9.9,20.8-20.8h2C-354.6,106.5-364.1,116-376,117.4z M-350,92.6h-8c-0.6,0-1-0.4-1-1s0.4-1,1-1h8c0.6,0,1,0.4,1,1
		S-349.4,92.6-350,92.6z"/>
	<path class="st0" d="M-379,76.6c-13.9,0-20.3,17.4-9.7,26.4c5.6,4.8,13.8,4.8,19.4,0l0,0C-358.7,94-365.1,76.6-379,76.6z
		 M-386.9,101.9l0.5-1.4c1.4-4.1,5.8-6.3,9.9-4.9c2.3,0.8,4.1,2.6,4.9,4.9l0.5,1.4C-375.8,105.5-382.2,105.5-386.9,101.9z
		 M-383.1,89v-1.3c0-2.3,1.8-4.1,4.1-4.1c2.3,0,4.1,1.8,4.1,4.1V89c0,2.3-1.8,4.1-4.1,4.1C-381.3,93.1-383.1,91.3-383.1,89
		L-383.1,89z M-369.5,100.4c-0.8-3-3-5.4-5.8-6.6c2.4-1.8,2.4-4.1,2.4-6.1c0-3.4-2.7-6.1-6.1-6.1s-6.1,2.7-6.1,6.1l0,0
		c0,2.1,0,4.3,2.4,6.1c-2.9,1.2-5,3.6-5.8,6.6c-4.9-5.2-4.6-13.5,0.6-18.4s13.5-4.6,18.4,0.6C-364.9,87.7-364.9,95.4-369.5,100.4
		L-369.5,100.4z"/>
</g>
</svg>
