<?xml version="1.0" encoding="utf-8"?>
<!-- Generator: Adobe Illustrator 19.0.0, SVG Export Plug-In . SVG Version: 6.00 Build 0)  -->
<svg version="1.1" id="Ebene_1" xmlns="http://www.w3.org/2000/svg" xmlns:xlink="http://www.w3.org/1999/xlink" x="0px" y="0px"
	 viewBox="0 0 1400 100" style="enable-background:new 0 0 1400 100;" xml:space="preserve">
<style type="text/css">
	.st0{fill:#28B9D2;}
</style>
<path id="XMLID_2_" class="st0" d="M1340.9,80.2c-23-1.8-44.8-4.7-67.7-6.5c-77.9-6.4-145.7,7.2-219.8,11.1
	c-21.8,1.2-44.3,1.5-66.1,0.1c-24.5-1.6-48-4.6-71.5-7.1c-45.6-4.7-95.1-9.2-143.9-7.4c-43,1.5-81.4,7.4-120,12.8
	c-38,5.3-77,9.8-119.4,10.3c-23.4,0.3-46.1-0.6-67.9-3.2c-21-2.5-40.4-6.3-60.3-9.5c-42.1-6.6-89.9-12.5-138.4-9.2
	c-42.1,2.9-77.6,10.9-119.4,14C97.8,89.2,38.3,86.4,0,76.6V100h1400V80.9C1380.7,82.4,1360,81.7,1340.9,80.2z"/>
</svg>
